# xmcd
#
# Track frame offsets:
#	150
#	14988
#	38669
#	55842
#	76642
#	91479
#	115147
#	132320
#
# Disc length: 2043 seconds
#
# Revision: 2
# Processed by: cddbd v1.5.2PL0 Copyright (c) Steve Scherf et al.
# Submitted via: audiograbber 1.83.01
#
DISCID=6007f908
DTITLE=Open Mic Karaoke Stacie Orrico Vol. 1 - TKD-77959
DYEAR=1900
DGENRE=
TTITLE0=Stacie Orrico - Bounce Back
TTITLE1=Stacie Orrico - Genuine
TTITLE2=Stacie Orrico - Don t Look At Me
TTITLE3=Stacie Orrico - Everything
TTITLE4=Stacie Orrico [Wvocal] - Bounce Back
TTITLE5=Stacie Orrico [Wvocal] - Genuine
TTITLE6=Stacie Orrico [Wvocal] - Don t Look At Me
TTITLE7=Stacie Orrico [Wvocal] - Everything
EXTD=
EXTT0=
EXTT1=
EXTT2=
EXTT3=
EXTT4=
EXTT5=
EXTT6=
EXTT7=
PLAYORDER=
